<?xml version="1.0" encoding="UTF-8"?>
<svg id="Capa_1" xmlns="http://www.w3.org/2000/svg" version="1.1" viewBox="0 0 792 612">
  <defs>
    <style>
      .st0 {
        fill: currentColor;
      }
    </style>
  </defs>
  <path class="st0" d="M584.02,328.25c-3.07-3.29-4.82-6.35-3.31-11.07,4.34-13.65,4.36-27.84,4.82-41.99.27-8.32,1.29-16.56,4.72-24.34,10.63-24.1,15.9-26.64,40.53-19.37,15.53,4.58,31.13,8.94,47.16,11.37,7.51,1.14,10.99,6.97,15.03,12.14,5.61,7.16,25.33,12.23,31.65,7.95,7.42-5.02,10.49-21.14,5.87-30.99-5.47-11.66-10.76-23.41-16.51-34.92-5.41-10.82-10.68-21.56-11.79-33.89-.5-5.52-2.87-10.96-6.75-14.48-12.07-10.98-15.36-26.05-20.58-40.36-1.55-4.27-.98-11.57-7.15-11.39-5.08.15-4.17,7.35-6.59,11.04-.71-.32-1.65-.46-2.08-1.01-3.38-4.37-4.13-13.86-10.47-12.03-7.01,2.03-4.03,10.93-3.03,16.53,1.16,6.58-1.69,7.68-6.83,8.67-16.76,3.21-33.09,8.1-49.26,13.51-11.31,3.79-22.66,4.74-34.3,1.03-3.74-1.19-7.77-2.92-13.09-.68,3.96,4.52,7.62,8.68,12.21,13.92-10.35,4.82-20.15,2.22-29.73,2.49-5.41.15-17.7-3.92-8.63,9.95,2.91,4.45-1.85,4.83-4.3,4.89-8.81.24-17.34-1.63-25.58-4.73-4.76-1.79-4.19-5.89-3.3-9.49,1.58-6.4,3.28-16.17,9.94-15.61,12.41,1.05,17.02-7.52,22.96-14.21,4.59-5.17,6.99-12.33,19.01-5.97-5.42-9.17-6.46-14.73-6.07-21.22.86-14.39-8.15-25.36-21.3-28.31-13.51-3.04-28.21,2.99-32.87,16.12-3.45,9.75-8.37,9.8-16.71,8.72-27.23-3.52-54.01-1.64-79.33,10.13-5.61,2.61-11.06,5.88-15.96,9.65-26.35,20.3-22.91,50.47,7.58,63.94,16.37,7.24,33.42,13.03,44,31.21-12.06,2.04-23.41,1.38-34.58-.63-18.81-3.39-37.49-7.49-56.25-11.14-25.74-4.99-50.67-1.55-74.4,8.95-11.9,5.26-23.67,6.61-36.36,5.2-19.11-2.12-38.2-1.89-56.95,3.34-26.05,7.27-42.34,23.81-47.57,50.57-2.79,14.28-4.81,28.71-7.71,42.96-7.07,34.76-21.83,43.09-54,30.88-.14,21.04,14.38,36.49,35.89,38.18,38.53,3.02,71.13-25.46,75.24-65.74,1.01-9.92,1.4-19.97,3.25-29.73,4.59-24.31,24.64-43.81,46.49-45.71-21.44,32.54-16.52,64.3,1.71,96.08,9.56,16.67,5.42,31.17-10.79,41.7-3.13,2.03-6.37,4.46-9.88,5.22-21.7,4.69-30.23,20.09-35.67,39.86-5.62,20.43-14.75,39.71-25.12,58.28-1.76,3.15-2.79,7.41-8.06,4.8-13.06-6.47-17.95,2.26-22.07,12.08-1.44,3.44-2.69,7.01-3.51,10.64-2.39,10.56-.05,12.77,10.66,10.43,24.94-5.44,45.42-16.03,51.73-43.69,1.09-4.8,4.04-9.15,5.44-13.91,8.77-29.81,31.6-43.06,60.17-51.05-1.3,6.73-5.46,11.25-9.27,15.81-5.84,7-6.01,13.4,1.24,19.4,19.95,16.52,31.83,39.25,46.47,59.89,3.99,5.62,4.67,9.57-2.29,12.47-10.74,4.47-10.57,10.94-4.03,19.09,2.06,2.56,3.37,5.72,5.07,8.58,7.2,12.12,11.51,12.43,17.9-.61,8.95-18.27,12.01-37.21.08-55.82-6.73-10.5-13.72-20.84-20.2-31.49-10.16-16.71-9.43-26.87,3.7-41.38,7.23-7.99,15.62-14.93,23.36-22.48,15.04-14.66,28.26-30.64,34.23-51.28,2.02-7,5.43-6.45,10.98-4.25,22.41,8.86,44.72,18.09,68.02,24.44,34.47,9.4,69.51,12.62,105.03,8.01,7.25-.94,12.68.26,17.52,6.05,5.32,6.36,12.06,11.57,17.13,18.11,27.37,35.31,64.63,60.7,93.89,94.09,3.55,4.05,7.84,7.5,13.12,9.28,4.12,1.39,5.85,3.9,5.48,8.42-.98,11.91,5.72,16.46,16.65,16.6.42,0,.84.12,1.24.08,7.41-.74,15.83,4.36,22.02-2.32,2.6-2.81-11.17-23.12-15.99-26.84-23.58-18.23-46.61-37.33-62.21-63.18-7.67-12.7-19.07-22.9-25.28-38.34,33.06,12.5,65.28,23.49,88.27,50.78,2.94,3.49,5.67,7.86,9.52,9.74,9.6,4.69,19.45,8.17,16.22,22.26-.66,2.86,3.07,4.72,5.93,5.55,4.38,1.27,8.82,2.44,13.3,3.24,6.44,1.15,15.76,5.56,18.77.68,3.7-6-2.14-14.43-6.78-19.91-8.53-10.08-17.3-20.06-28.05-28.11-19.01-14.23-37.33-29.27-51.48-48.67-3.53-4.84-8.29-8.05-13.74-10.42-21.52-9.38-37.74-25.45-53.42-42.24ZM476.15,187.91c-7.23,4.31-15.37,6.01-23.29,8.31-4.46,1.3-7.26.39-6.94-5.12.73-12.36-6.58-19.97-16.01-26.09-7.19-4.67-14.57-9.06-23.92-14.84,11.71-4.71,21.72-2.3,31.45-3.11,7.53-.62,11.39,1.58,11.31,10.07-.13,13.79,7.73,22.11,20.4,26.42,2.6.88,5.79.98,7,4.34ZM615.44,218.35c1.9-5.12,6.96-6.92,11.42-8.88,3.38-1.49,7.33-5.66,10.99-.57,6.87,9.54,16.09,16.56,24.6,25.26-14.6-4.28-29.19-8.57-43.79-12.85-1.61-.47-3.86-1.22-3.21-2.96Z"/>
</svg>
